<svg width="45" height="44" viewBox="0 0 45 44" fill="none" xmlns="http://www.w3.org/2000/svg">
<path d="M22 43.96C17.68 43.96 13.9 43.18 10.66 41.62C7.42 40.02 4.9 37.82 3.1 35.02C1.34 32.18 0.46 28.9 0.46 25.18C0.46 21.5 1.1 18.12 2.38 15.04C3.7 11.96 5.54 9.3 7.9 7.06C10.26 4.82 13.06 3.1 16.3 1.9C19.54 0.659998 23.1 0.0399988 26.98 0.0399988C31.02 0.0399988 34.6 0.759999 37.72 2.2C40.84 3.64 43.16 5.72 44.68 8.44L34.48 16.42C33.6 14.86 32.46 13.66 31.06 12.82C29.66 11.94 28 11.5 26.08 11.5C24.4 11.5 22.86 11.82 21.46 12.46C20.1 13.06 18.92 13.94 17.92 15.1C16.92 16.22 16.14 17.56 15.58 19.12C15.02 20.68 14.74 22.4 14.74 24.28C14.74 25.92 15.1 27.36 15.82 28.6C16.54 29.84 17.54 30.8 18.82 31.48C20.14 32.16 21.66 32.5 23.38 32.5C25.02 32.5 26.62 32.12 28.18 31.36C29.78 30.6 31.3 29.36 32.74 27.64L41.08 35.62C38.52 38.74 35.66 40.92 32.5 42.16C29.38 43.36 25.88 43.96 22 43.96Z" fill="#FF4D01"/>
</svg>
